# xmcd CD database file
#
# Track frame offsets:
#	150
#	12949
#	35847
#	57706
#	84526
#	100990
#	119957
#	145382
#	171118
#	190122
#	200543
#	213475
#
# Disc length: 3140 seconds
#
# Revision: 1
# Processed by: cddbd v1.5.2PL0 Copyright (c) Steve Scherf et al.
# Submitted via: CDex 1.51
#
DISCID=bb0c420c
DTITLE=Stockholm Stompers - When the Stevedore Stomps
DYEAR=2008
DGENRE=Jazz
TTITLE0=Stevedore Stomp
TTITLE1=Hummin' to Myself
TTITLE2=Ack Värmeland du sköna
TTITLE3=Black and Tan Fantasy
TTITLE4=Sentimental Gentleman from Georgia
TTITLE5=It's Wonderful
TTITLE6=What a Dream
TTITLE7=Blues for Bechet
TTITLE8=Sweet Georgia Brown
TTITLE9=Comes Love
TTITLE10=Sweet Georgia Brown
TTITLE11=Nuages
EXTD=YEAR: 2008
EXTT0=
EXTT1=
EXTT2=
EXTT3=
EXTT4=
EXTT5=
EXTT6=
EXTT7=
EXTT8=
EXTT9=
EXTT10=
EXTT11=
PLAYORDER=
